{
	"asset":{
		"generator":"Khronos glTF Blender I/O v4.1.63",
		"version":"2.0"
	},
	"scene":0,
	"scenes":[
		{
			"name":"Scene",
			"nodes":[
				0
			]
		}
	],
	"nodes":[
		{
			"mesh":0,
			"name":"Text"
		}
	],
	"materials":[
		{
			"doubleSided":true,
			"name":"Material.001",
			"pbrMetallicRoughness":{
				"baseColorFactor":[
					0.15292495489120483,
					0.3139890730381012,
					0.2383977174758911,
					1
				],
				"metallicFactor":0,
				"roughnessFactor":0.5
			}
		}
	],
	"meshes":[
		{
			"name":"Text",
			"primitives":[
				{
					"attributes":{
						"POSITION":0,
						"NORMAL":1,
						"TEXCOORD_0":2
					},
					"indices":3,
					"material":0
				}
			]
		}
	],
	"accessors":[
		{
			"bufferView":0,
			"componentType":5126,
			"count":10694,
			"max":[
				4.806401252746582,
				0.04999999701976776,
				0.01901710033416748
			],
			"min":[
				0.03797975555062294,
				-0.04999999701976776,
				-0.7010059952735901
			],
			"type":"VEC3"
		},
		{
			"bufferView":1,
			"componentType":5126,
			"count":10694,
			"type":"VEC3"
		},
		{
			"bufferView":2,
			"componentType":5126,
			"count":10694,
			"type":"VEC2"
		},
		{
			"bufferView":3,
			"componentType":5123,
			"count":54144,
			"type":"SCALAR"
		}
	],
	"bufferViews":[
		{
			"buffer":0,
			"byteLength":128328,
			"byteOffset":0,
			"target":34962
		},
		{
			"buffer":0,
			"byteLength":128328,
			"byteOffset":128328,
			"target":34962
		},
		{
			"buffer":0,
			"byteLength":85552,
			"byteOffset":256656,
			"target":34962
		},
		{
			"buffer":0,
			"byteLength":108288,
			"byteOffset":342208,
			"target":34963
		}
	],
	"buffers":[
		{
			"byteLength":450496,
			"uri":"contact_me.bin"
		}
	]
}
