{
  "accessors": [
    {
      "bufferView": 1,
      "componentType": 5126,
      "count": 3840,
      "max": [
        2.252816915512085,
        1.1967604160308838,
        0.48303765058517456
      ],
      "min": [
        0.12456385791301727,
        -0.22763757407665253,
        -0.9002069234848022
      ],
      "type": "VEC3"
    },
    {
      "bufferView": 1,
      "byteOffset": 46080,
      "componentType": 5126,
      "count": 3840,
      "max": [
        0.9998371601104736,
        0.9999991059303284,
        0.9996305108070374
      ],
      "min": [
        -0.9998593926429749,
        -0.9996351599693298,
        -0.9996711015701294
      ],
      "type": "VEC3"
    },
    {
      "bufferView": 0,
      "componentType": 5125,
      "count": 5760,
      "type": "SCALAR"
    },
    {
      "bufferView": 1,
      "byteOffset": 92160,
      "componentType": 5126,
      "count": 1632,
      "max": [
        2.126189708709717,
        1.669518232345581,
        1.201869249343872
      ],
      "min": [
        -0.9769287705421448,
        -0.9778391718864441,
        -1.2073490619659424
      ],
      "type": "VEC3"
    },
    {
      "bufferView": 1,
      "byteOffset": 111744,
      "componentType": 5126,
      "count": 1632,
      "max": [
        0.998641312122345,
        0.9934282898902893,
        0.9999951720237732
      ],
      "min": [
        -0.9982954859733582,
        -0.9989344477653503,
        -0.9832853674888611
      ],
      "type": "VEC3"
    },
    {
      "bufferView": 0,
      "byteOffset": 23040,
      "componentType": 5125,
      "count": 2448,
      "type": "SCALAR"
    },
    {
      "bufferView": 1,
      "byteOffset": 131328,
      "componentType": 5126,
      "count": 3200,
      "max": [
        532.443359375,
        193.62310791015625,
        609.5210571289063
      ],
      "min": [
        -243.014892578125,
        -517.21728515625,
        -234.89474487304688
      ],
      "type": "VEC3"
    },
    {
      "bufferView": 1,
      "byteOffset": 169728,
      "componentType": 5126,
      "count": 3200,
      "max": [
        0.9868224263191223,
        0.9867762327194214,
        0.5136184096336365
      ],
      "min": [
        -0.9871041178703308,
        -0.9867752194404602,
        -0.5691390037536621
      ],
      "type": "VEC3"
    },
    {
      "bufferView": 0,
      "byteOffset": 32832,
      "componentType": 5125,
      "count": 4800,
      "type": "SCALAR"
    }
  ],
  "asset": {
    "extras": {
      "author": "David Junghanns (https://sketchfab.com/davidju)",
      "license": "CC-BY-4.0 (http://creativecommons.org/licenses/by/4.0/)",
      "source": "https://sketchfab.com/3d-models/perspective-d84f98de4a0a4d509d5df6e52936823c",
      "title": "Perspective"
    },
    "generator": "Sketchfab-12.67.0",
    "version": "2.0"
  },
  "bufferViews": [
    {
      "buffer": 0,
      "byteLength": 52032,
      "name": "floatBufferViews",
      "target": 34963
    },
    {
      "buffer": 0,
      "byteLength": 208128,
      "byteOffset": 52032,
      "byteStride": 12,
      "name": "floatBufferViews",
      "target": 34962
    }
  ],
  "buffers": [
    {
      "byteLength": 260160,
      "uri": "scene.bin"
    }
  ],
  "materials": [
    {
      "doubleSided": true,
      "emissiveFactor": [
        0.13318854,
        0.7215890279999999,
        0.9792769950000001
      ],
      "name": "Material",
      "pbrMetallicRoughness": {
        "baseColorFactor": [
          0.0,
          0.0,
          0.0,
          1.0
        ],
        "metallicFactor": 0.0,
        "roughnessFactor": 0.9577051495
      }
    }
  ],
  "meshes": [
    {
      "name": "Cube.009_Material_0",
      "primitives": [
        {
          "attributes": {
            "NORMAL": 1,
            "POSITION": 0
          },
          "indices": 2,
          "material": 0,
          "mode": 4
        }
      ]
    },
    {
      "name": "Cube.007_Material_0",
      "primitives": [
        {
          "attributes": {
            "NORMAL": 4,
            "POSITION": 3
          },
          "indices": 5,
          "material": 0,
          "mode": 4
        }
      ]
    },
    {
      "name": "Cube.004_Material_0",
      "primitives": [
        {
          "attributes": {
            "NORMAL": 7,
            "POSITION": 6
          },
          "indices": 8,
          "material": 0,
          "mode": 4
        }
      ]
    }
  ],
  "nodes": [
    {
      "children": [
        1
      ],
      "matrix": [
        1.0,
        0.0,
        0.0,
        0.0,
        0.0,
        2.220446049250313e-16,
        -1.0,
        0.0,
        0.0,
        1.0,
        2.220446049250313e-16,
        0.0,
        0.0,
        0.0,
        0.0,
        1.0
      ],
      "name": "Sketchfab_model"
    },
    {
      "children": [
        2
      ],
      "matrix": [
        1.0,
        0.0,
        0.0,
        0.0,
        0.0,
        0.0,
        1.0,
        0.0,
        0.0,
        -1.0,
        0.0,
        0.0,
        0.0,
        0.0,
        0.0,
        1.0
      ],
      "name": "8cab7b652ac147b592d777325b943a79.fbx"
    },
    {
      "children": [
        3,
        5,
        7
      ],
      "name": "RootNode"
    },
    {
      "children": [
        4
      ],
      "matrix": [
        100.0,
        0.0,
        0.0,
        0.0,
        -0.0,
        -1.629206793918314e-05,
        -99.99999999999868,
        0.0,
        0.0,
        99.99999999999868,
        -1.629206793918314e-05,
        0.0,
        -62.5,
        100.0,
        62.5,
        1.0
      ],
      "name": "Cube.009"
    },
    {
      "mesh": 0,
      "name": "Cube.009_Material_0"
    },
    {
      "children": [
        6
      ],
      "matrix": [
        100.0,
        0.0,
        0.0,
        0.0,
        -0.0,
        -1.629206793918314e-05,
        -99.99999999999868,
        0.0,
        0.0,
        99.99999999999868,
        -1.629206793918314e-05,
        0.0,
        -62.5,
        100.0,
        62.5,
        1.0
      ],
      "name": "Cube.007"
    },
    {
      "mesh": 1,
      "name": "Cube.007_Material_0"
    },
    {
      "children": [
        8
      ],
      "matrix": [
        0.21221379935741425,
        0.0,
        0.0,
        0.0,
        0.0,
        -3.457401636763172e-08,
        -0.21221379935741144,
        0.0,
        0.0,
        0.21221379935741144,
        -3.457401636763172e-08,
        0.0,
        24.735904693603516,
        123.58966827392578,
        1.5166647244768683e-05,
        1.0
      ],
      "name": "Cube.004"
    },
    {
      "mesh": 2,
      "name": "Cube.004_Material_0"
    }
  ],
  "scene": 0,
  "scenes": [
    {
      "name": "Sketchfab_Scene",
      "nodes": [
        0
      ]
    }
  ]
}
