<svg xmlns="http://www.w3.org/2000/svg" version="1.1" xmlns:xlink="http://www.w3.org/1999/xlink" xmlns:svgjs="http://svgjs.dev/svgjs" width="1440" height="560" preserveAspectRatio="none" viewBox="0 0 1440 560"><g mask="url(&quot;#SvgjsMask1014&quot;)" fill="none"><rect width="1440" height="560" x="0" y="0" fill="rgba(255, 255, 255, 1)"></rect><path d="M-97.33 366.27L-97.33 366.27" stroke="rgba(129, 129, 129, 1)" stroke-width="1.5"></path><path d="M-97.33 366.27L-38.63 535.12" stroke="rgba(129, 129, 129, 1)" stroke-width="1.5"></path><path d="M-97.33 366.27L87.65 378.59" stroke="rgba(129, 129, 129, 1)" stroke-width="1.5"></path><path d="M-97.33 366.27L108.46 505.59" stroke="rgba(129, 129, 129, 1)" stroke-width="1.5"></path><path d="M-38.63 535.12L-38.63 535.12" stroke="rgba(129, 129, 129, 1)" stroke-width="1.5"></path><path d="M-38.63 535.12L-62.41 646.41" stroke="rgba(129, 129, 129, 1)" stroke-width="1.5"></path><path d="M-38.63 535.12L108.46 505.59" stroke="rgba(129, 129, 129, 1)" stroke-width="1.5"></path><path d="M-62.41 646.41L-62.41 646.41" stroke="rgba(129, 129, 129, 1)" stroke-width="1.5"></path><path d="M-62.41 646.41L41.87 712.28" stroke="rgba(129, 129, 129, 1)" stroke-width="1.5"></path><path d="M-62.41 646.41L108.46 505.59" stroke="rgba(129, 129, 129, 1)" stroke-width="1.5"></path><path d="M-62.41 646.41L189.3 558.72" stroke="rgba(129, 129, 129, 1)" stroke-width="1.5"></path><path d="M-62.41 646.41L-97.33 366.27" stroke="rgba(129, 129, 129, 1)" stroke-width="1.5"></path><path d="M-62.41 646.41L244.25 644.7" stroke="rgba(129, 129, 129, 1)" stroke-width="1.5"></path><path d="M87.65 378.59L87.65 378.59" stroke="rgba(129, 129, 129, 1)" stroke-width="1.5"></path><path d="M87.65 378.59L199.26 385.48" stroke="rgba(129, 129, 129, 1)" stroke-width="1.5"></path><path d="M87.65 378.59L108.46 505.59" stroke="rgba(129, 129, 129, 1)" stroke-width="1.5"></path><path d="M108.46 505.59L108.46 505.59" stroke="rgba(129, 129, 129, 1)" stroke-width="1.5"></path><path d="M108.46 505.59L189.3 558.72" stroke="rgba(129, 129, 129, 1)" stroke-width="1.5"></path><path d="M108.46 505.59L199.26 385.48" stroke="rgba(129, 129, 129, 1)" stroke-width="1.5"></path><path d="M41.87 712.28L41.87 712.28" stroke="rgba(129, 129, 129, 1)" stroke-width="1.5"></path><path d="M41.87 712.28L-38.63 535.12" stroke="rgba(129, 129, 129, 1)" stroke-width="1.5"></path><path d="M199.26 385.48L199.26 385.48" stroke="rgba(129, 129, 129, 1)" stroke-width="1.5"></path><path d="M189.3 558.72L189.3 558.72" stroke="rgba(129, 129, 129, 1)" stroke-width="1.5"></path><path d="M189.3 558.72L244.25 644.7" stroke="rgba(129, 129, 129, 1)" stroke-width="1.5"></path><path d="M189.3 558.72L199.26 385.48" stroke="rgba(129, 129, 129, 1)" stroke-width="1.5"></path><path d="M244.25 644.7L244.25 644.7" stroke="rgba(129, 129, 129, 1)" stroke-width="1.5"></path><path d="M244.25 644.7L349.5 694.25" stroke="rgba(129, 129, 129, 1)" stroke-width="1.5"></path><path d="M244.25 644.7L357.95 490.63" stroke="rgba(129, 129, 129, 1)" stroke-width="1.5"></path><path d="M244.25 644.7L108.46 505.59" stroke="rgba(129, 129, 129, 1)" stroke-width="1.5"></path><path d="M357.95 490.63L357.95 490.63" stroke="rgba(129, 129, 129, 1)" stroke-width="1.5"></path><path d="M357.95 490.63L507.22 497.43" stroke="rgba(129, 129, 129, 1)" stroke-width="1.5"></path><path d="M357.95 490.63L189.3 558.72" stroke="rgba(129, 129, 129, 1)" stroke-width="1.5"></path><path d="M357.95 490.63L199.26 385.48" stroke="rgba(129, 129, 129, 1)" stroke-width="1.5"></path><path d="M349.5 694.25L349.5 694.25" stroke="rgba(129, 129, 129, 1)" stroke-width="1.5"></path><path d="M349.5 694.25L522.09 708.26" stroke="rgba(129, 129, 129, 1)" stroke-width="1.5"></path><path d="M349.5 694.25L357.95 490.63" stroke="rgba(129, 129, 129, 1)" stroke-width="1.5"></path><path d="M531.06 367.51L531.06 367.51" stroke="rgba(129, 129, 129, 1)" stroke-width="1.5"></path><path d="M531.06 367.51L507.22 497.43" stroke="rgba(129, 129, 129, 1)" stroke-width="1.5"></path><path d="M531.06 367.51L666.77 393.65" stroke="rgba(129, 129, 129, 1)" stroke-width="1.5"></path><path d="M531.06 367.51L688.23 240.91" stroke="rgba(129, 129, 129, 1)" stroke-width="1.5"></path><path d="M531.06 367.51L357.95 490.63" stroke="rgba(129, 129, 129, 1)" stroke-width="1.5"></path><path d="M507.22 497.43L507.22 497.43" stroke="rgba(129, 129, 129, 1)" stroke-width="1.5"></path><path d="M522.09 708.26L522.09 708.26" stroke="rgba(129, 129, 129, 1)" stroke-width="1.5"></path><path d="M522.09 708.26L694.92 708.97" stroke="rgba(129, 129, 129, 1)" stroke-width="1.5"></path><path d="M522.09 708.26L507.22 497.43" stroke="rgba(129, 129, 129, 1)" stroke-width="1.5"></path><path d="M522.09 708.26L709.22 517.41" stroke="rgba(129, 129, 129, 1)" stroke-width="1.5"></path><path d="M522.09 708.26L357.95 490.63" stroke="rgba(129, 129, 129, 1)" stroke-width="1.5"></path><path d="M522.09 708.26L244.25 644.7" stroke="rgba(129, 129, 129, 1)" stroke-width="1.5"></path><path d="M688.23 240.91L688.23 240.91" stroke="rgba(129, 129, 129, 1)" stroke-width="1.5"></path><path d="M688.23 240.91L666.77 393.65" stroke="rgba(129, 129, 129, 1)" stroke-width="1.5"></path><path d="M688.23 240.91L845.64 235.38" stroke="rgba(129, 129, 129, 1)" stroke-width="1.5"></path><path d="M688.23 240.91L813.2 411.87" stroke="rgba(129, 129, 129, 1)" stroke-width="1.5"></path><path d="M688.23 240.91L709.22 517.41" stroke="rgba(129, 129, 129, 1)" stroke-width="1.5"></path><path d="M666.77 393.65L666.77 393.65" stroke="rgba(129, 129, 129, 1)" stroke-width="1.5"></path><path d="M666.77 393.65L709.22 517.41" stroke="rgba(129, 129, 129, 1)" stroke-width="1.5"></path><path d="M666.77 393.65L813.2 411.87" stroke="rgba(129, 129, 129, 1)" stroke-width="1.5"></path><path d="M709.22 517.41L709.22 517.41" stroke="rgba(129, 129, 129, 1)" stroke-width="1.5"></path><path d="M709.22 517.41L849.28 491.62" stroke="rgba(129, 129, 129, 1)" stroke-width="1.5"></path><path d="M709.22 517.41L813.2 411.87" stroke="rgba(129, 129, 129, 1)" stroke-width="1.5"></path><path d="M709.22 517.41L694.92 708.97" stroke="rgba(129, 129, 129, 1)" stroke-width="1.5"></path><path d="M709.22 517.41L507.22 497.43" stroke="rgba(129, 129, 129, 1)" stroke-width="1.5"></path><path d="M694.92 708.97L694.92 708.97" stroke="rgba(129, 129, 129, 1)" stroke-width="1.5"></path><path d="M694.92 708.97L847.41 686.44" stroke="rgba(129, 129, 129, 1)" stroke-width="1.5"></path><path d="M694.92 708.97L937.51 694.11" stroke="rgba(129, 129, 129, 1)" stroke-width="1.5"></path><path d="M845.64 235.38L845.64 235.38" stroke="rgba(129, 129, 129, 1)" stroke-width="1.5"></path><path d="M845.64 235.38L997.22 218.09" stroke="rgba(129, 129, 129, 1)" stroke-width="1.5"></path><path d="M845.64 235.38L813.2 411.87" stroke="rgba(129, 129, 129, 1)" stroke-width="1.5"></path><path d="M813.2 411.87L813.2 411.87" stroke="rgba(129, 129, 129, 1)" stroke-width="1.5"></path><path d="M813.2 411.87L849.28 491.62" stroke="rgba(129, 129, 129, 1)" stroke-width="1.5"></path><path d="M813.2 411.87L987.69 369.26" stroke="rgba(129, 129, 129, 1)" stroke-width="1.5"></path><path d="M849.28 491.62L849.28 491.62" stroke="rgba(129, 129, 129, 1)" stroke-width="1.5"></path><path d="M849.28 491.62L986.31 543.21" stroke="rgba(129, 129, 129, 1)" stroke-width="1.5"></path><path d="M847.41 686.44L847.41 686.44" stroke="rgba(129, 129, 129, 1)" stroke-width="1.5"></path><path d="M847.41 686.44L937.51 694.11" stroke="rgba(129, 129, 129, 1)" stroke-width="1.5"></path><path d="M847.41 686.44L849.28 491.62" stroke="rgba(129, 129, 129, 1)" stroke-width="1.5"></path><path d="M847.41 686.44L986.31 543.21" stroke="rgba(129, 129, 129, 1)" stroke-width="1.5"></path><path d="M847.41 686.44L709.22 517.41" stroke="rgba(129, 129, 129, 1)" stroke-width="1.5"></path><path d="M997.22 218.09L997.22 218.09" stroke="rgba(129, 129, 129, 1)" stroke-width="1.5"></path><path d="M997.22 218.09L1117.18 203.64" stroke="rgba(129, 129, 129, 1)" stroke-width="1.5"></path><path d="M987.69 369.26L987.69 369.26" stroke="rgba(129, 129, 129, 1)" stroke-width="1.5"></path><path d="M987.69 369.26L997.22 218.09" stroke="rgba(129, 129, 129, 1)" stroke-width="1.5"></path><path d="M987.69 369.26L1152.48 411.27" stroke="rgba(129, 129, 129, 1)" stroke-width="1.5"></path><path d="M987.69 369.26L986.31 543.21" stroke="rgba(129, 129, 129, 1)" stroke-width="1.5"></path><path d="M987.69 369.26L849.28 491.62" stroke="rgba(129, 129, 129, 1)" stroke-width="1.5"></path><path d="M987.69 369.26L845.64 235.38" stroke="rgba(129, 129, 129, 1)" stroke-width="1.5"></path><path d="M986.31 543.21L986.31 543.21" stroke="rgba(129, 129, 129, 1)" stroke-width="1.5"></path><path d="M986.31 543.21L937.51 694.11" stroke="rgba(129, 129, 129, 1)" stroke-width="1.5"></path><path d="M986.31 543.21L1157.75 549.3" stroke="rgba(129, 129, 129, 1)" stroke-width="1.5"></path><path d="M937.51 694.11L937.51 694.11" stroke="rgba(129, 129, 129, 1)" stroke-width="1.5"></path><path d="M937.51 694.11L849.28 491.62" stroke="rgba(129, 129, 129, 1)" stroke-width="1.5"></path><path d="M937.51 694.11L1157.75 549.3" stroke="rgba(129, 129, 129, 1)" stroke-width="1.5"></path><path d="M937.51 694.11L709.22 517.41" stroke="rgba(129, 129, 129, 1)" stroke-width="1.5"></path><path d="M1113.43 -104.72L1113.43 -104.72" stroke="rgba(129, 129, 129, 1)" stroke-width="1.5"></path><path d="M1113.43 -104.72L1237.6 -106.19" stroke="rgba(129, 129, 129, 1)" stroke-width="1.5"></path><path d="M1113.43 -104.72L1102.12 86.01" stroke="rgba(129, 129, 129, 1)" stroke-width="1.5"></path><path d="M1113.43 -104.72L1264.41 68.87" stroke="rgba(129, 129, 129, 1)" stroke-width="1.5"></path><path d="M1113.43 -104.72L1117.18 203.64" stroke="rgba(129, 129, 129, 1)" stroke-width="1.5"></path><path d="M1113.43 -104.72L1440.48 -50.5" stroke="rgba(129, 129, 129, 1)" stroke-width="1.5"></path><path d="M1102.12 86.01L1102.12 86.01" stroke="rgba(129, 129, 129, 1)" stroke-width="1.5"></path><path d="M1102.12 86.01L1117.18 203.64" stroke="rgba(129, 129, 129, 1)" stroke-width="1.5"></path><path d="M1102.12 86.01L1264.41 68.87" stroke="rgba(129, 129, 129, 1)" stroke-width="1.5"></path><path d="M1102.12 86.01L997.22 218.09" stroke="rgba(129, 129, 129, 1)" stroke-width="1.5"></path><path d="M1102.12 86.01L1237.6 -106.19" stroke="rgba(129, 129, 129, 1)" stroke-width="1.5"></path><path d="M1117.18 203.64L1117.18 203.64" stroke="rgba(129, 129, 129, 1)" stroke-width="1.5"></path><path d="M1117.18 203.64L1282.92 249.23" stroke="rgba(129, 129, 129, 1)" stroke-width="1.5"></path><path d="M1152.48 411.27L1152.48 411.27" stroke="rgba(129, 129, 129, 1)" stroke-width="1.5"></path><path d="M1152.48 411.27L1157.75 549.3" stroke="rgba(129, 129, 129, 1)" stroke-width="1.5"></path><path d="M1152.48 411.27L1282.92 249.23" stroke="rgba(129, 129, 129, 1)" stroke-width="1.5"></path><path d="M1152.48 411.27L1117.18 203.64" stroke="rgba(129, 129, 129, 1)" stroke-width="1.5"></path><path d="M1157.75 549.3L1157.75 549.3" stroke="rgba(129, 129, 129, 1)" stroke-width="1.5"></path><path d="M1157.75 549.3L1297.31 690.59" stroke="rgba(129, 129, 129, 1)" stroke-width="1.5"></path><path d="M1237.6 -106.19L1237.6 -106.19" stroke="rgba(129, 129, 129, 1)" stroke-width="1.5"></path><path d="M1237.6 -106.19L1264.41 68.87" stroke="rgba(129, 129, 129, 1)" stroke-width="1.5"></path><path d="M1237.6 -106.19L1440.48 -50.5" stroke="rgba(129, 129, 129, 1)" stroke-width="1.5"></path><path d="M1264.41 68.87L1264.41 68.87" stroke="rgba(129, 129, 129, 1)" stroke-width="1.5"></path><path d="M1282.92 249.23L1282.92 249.23" stroke="rgba(129, 129, 129, 1)" stroke-width="1.5"></path><path d="M1282.92 249.23L1390.38 197.62" stroke="rgba(129, 129, 129, 1)" stroke-width="1.5"></path><path d="M1282.92 249.23L1417.87 350.87" stroke="rgba(129, 129, 129, 1)" stroke-width="1.5"></path><path d="M1282.92 249.23L1264.41 68.87" stroke="rgba(129, 129, 129, 1)" stroke-width="1.5"></path><path d="M1297.31 690.59L1297.31 690.59" stroke="rgba(129, 129, 129, 1)" stroke-width="1.5"></path><path d="M1297.31 690.59L1413.15 673.71" stroke="rgba(129, 129, 129, 1)" stroke-width="1.5"></path><path d="M1297.31 690.59L1432.33 506.44" stroke="rgba(129, 129, 129, 1)" stroke-width="1.5"></path><path d="M1297.31 690.59L1556.5 659.93" stroke="rgba(129, 129, 129, 1)" stroke-width="1.5"></path><path d="M1440.48 -50.5L1440.48 -50.5" stroke="rgba(129, 129, 129, 1)" stroke-width="1.5"></path><path d="M1440.48 -50.5L1607.65 -72.5" stroke="rgba(129, 129, 129, 1)" stroke-width="1.5"></path><path d="M1440.48 -50.5L1569.23 110.59" stroke="rgba(129, 129, 129, 1)" stroke-width="1.5"></path><path d="M1390.38 197.62L1390.38 197.62" stroke="rgba(129, 129, 129, 1)" stroke-width="1.5"></path><path d="M1390.38 197.62L1417.87 350.87" stroke="rgba(129, 129, 129, 1)" stroke-width="1.5"></path><path d="M1390.38 197.62L1560.31 189.64" stroke="rgba(129, 129, 129, 1)" stroke-width="1.5"></path><path d="M1390.38 197.62L1264.41 68.87" stroke="rgba(129, 129, 129, 1)" stroke-width="1.5"></path><path d="M1390.38 197.62L1569.23 110.59" stroke="rgba(129, 129, 129, 1)" stroke-width="1.5"></path><path d="M1417.87 350.87L1417.87 350.87" stroke="rgba(129, 129, 129, 1)" stroke-width="1.5"></path><path d="M1417.87 350.87L1432.33 506.44" stroke="rgba(129, 129, 129, 1)" stroke-width="1.5"></path><path d="M1417.87 350.87L1560.31 189.64" stroke="rgba(129, 129, 129, 1)" stroke-width="1.5"></path><path d="M1417.87 350.87L1152.48 411.27" stroke="rgba(129, 129, 129, 1)" stroke-width="1.5"></path><path d="M1432.33 506.44L1432.33 506.44" stroke="rgba(129, 129, 129, 1)" stroke-width="1.5"></path><path d="M1432.33 506.44L1413.15 673.71" stroke="rgba(129, 129, 129, 1)" stroke-width="1.5"></path><path d="M1432.33 506.44L1556.5 659.93" stroke="rgba(129, 129, 129, 1)" stroke-width="1.5"></path><path d="M1413.15 673.71L1413.15 673.71" stroke="rgba(129, 129, 129, 1)" stroke-width="1.5"></path><path d="M1413.15 673.71L1556.5 659.93" stroke="rgba(129, 129, 129, 1)" stroke-width="1.5"></path><path d="M1413.15 673.71L1157.75 549.3" stroke="rgba(129, 129, 129, 1)" stroke-width="1.5"></path><path d="M1413.15 673.71L1417.87 350.87" stroke="rgba(129, 129, 129, 1)" stroke-width="1.5"></path><path d="M1413.15 673.71L1152.48 411.27" stroke="rgba(129, 129, 129, 1)" stroke-width="1.5"></path><path d="M1607.65 -72.5L1607.65 -72.5" stroke="rgba(129, 129, 129, 1)" stroke-width="1.5"></path><path d="M1607.65 -72.5L1569.23 110.59" stroke="rgba(129, 129, 129, 1)" stroke-width="1.5"></path><path d="M1607.65 -72.5L1560.31 189.64" stroke="rgba(129, 129, 129, 1)" stroke-width="1.5"></path><path d="M1607.65 -72.5L1390.38 197.62" stroke="rgba(129, 129, 129, 1)" stroke-width="1.5"></path><path d="M1607.65 -72.5L1264.41 68.87" stroke="rgba(129, 129, 129, 1)" stroke-width="1.5"></path><path d="M1569.23 110.59L1569.23 110.59" stroke="rgba(129, 129, 129, 1)" stroke-width="1.5"></path><path d="M1569.23 110.59L1560.31 189.64" stroke="rgba(129, 129, 129, 1)" stroke-width="1.5"></path><path d="M1560.31 189.64L1560.31 189.64" stroke="rgba(129, 129, 129, 1)" stroke-width="1.5"></path><path d="M1560.31 189.64L1440.48 -50.5" stroke="rgba(129, 129, 129, 1)" stroke-width="1.5"></path><path d="M1560.31 189.64L1282.92 249.23" stroke="rgba(129, 129, 129, 1)" stroke-width="1.5"></path><path d="M1556.5 659.93L1556.5 659.93" stroke="rgba(129, 129, 129, 1)" stroke-width="1.5"></path><path d="M1556.5 659.93L1417.87 350.87" stroke="rgba(129, 129, 129, 1)" stroke-width="1.5"></path><path d="M1556.5 659.93L1157.75 549.3" stroke="rgba(129, 129, 129, 1)" stroke-width="1.5"></path><path d="M1556.5 659.93L1560.31 189.64" stroke="rgba(129, 129, 129, 1)" stroke-width="1.5"></path><circle r="5" cx="-97.33" cy="366.27" fill="rgba(129, 129, 129, 1)"></circle><circle r="5" cx="-38.63" cy="535.12" fill="rgba(129, 129, 129, 1)"></circle><circle r="5" cx="-62.41" cy="646.41" fill="rgba(129, 129, 129, 1)"></circle><circle r="5" cx="87.65" cy="378.59" fill="rgba(129, 129, 129, 1)"></circle><circle r="5" cx="108.46" cy="505.59" fill="rgba(129, 129, 129, 1)"></circle><circle r="5" cx="41.87" cy="712.28" fill="rgba(129, 129, 129, 1)"></circle><circle r="5" cx="199.26" cy="385.48" fill="rgba(129, 129, 129, 1)"></circle><circle r="5" cx="189.3" cy="558.72" fill="rgba(129, 129, 129, 1)"></circle><circle r="5" cx="244.25" cy="644.7" fill="rgba(129, 129, 129, 1)"></circle><circle r="5" cx="357.95" cy="490.63" fill="rgba(129, 129, 129, 1)"></circle><circle r="5" cx="349.5" cy="694.25" fill="rgba(129, 129, 129, 1)"></circle><circle r="5" cx="531.06" cy="367.51" fill="rgba(129, 129, 129, 1)"></circle><circle r="5" cx="507.22" cy="497.43" fill="rgba(129, 129, 129, 1)"></circle><circle r="5" cx="522.09" cy="708.26" fill="rgba(129, 129, 129, 1)"></circle><circle r="5" cx="688.23" cy="240.91" fill="rgba(129, 129, 129, 1)"></circle><circle r="5" cx="666.77" cy="393.65" fill="rgba(129, 129, 129, 1)"></circle><circle r="5" cx="709.22" cy="517.41" fill="rgba(129, 129, 129, 1)"></circle><circle r="5" cx="694.92" cy="708.97" fill="rgba(129, 129, 129, 1)"></circle><circle r="5" cx="845.64" cy="235.38" fill="rgba(129, 129, 129, 1)"></circle><circle r="5" cx="813.2" cy="411.87" fill="rgba(129, 129, 129, 1)"></circle><circle r="5" cx="849.28" cy="491.62" fill="rgba(129, 129, 129, 1)"></circle><circle r="5" cx="847.41" cy="686.44" fill="rgba(129, 129, 129, 1)"></circle><circle r="5" cx="997.22" cy="218.09" fill="rgba(129, 129, 129, 1)"></circle><circle r="5" cx="987.69" cy="369.26" fill="rgba(129, 129, 129, 1)"></circle><circle r="5" cx="986.31" cy="543.21" fill="rgba(129, 129, 129, 1)"></circle><circle r="5" cx="937.51" cy="694.11" fill="rgba(129, 129, 129, 1)"></circle><circle r="5" cx="1113.43" cy="-104.72" fill="rgba(129, 129, 129, 1)"></circle><circle r="5" cx="1102.12" cy="86.01" fill="rgba(129, 129, 129, 1)"></circle><circle r="5" cx="1117.18" cy="203.64" fill="rgba(129, 129, 129, 1)"></circle><circle r="5" cx="1152.48" cy="411.27" fill="rgba(129, 129, 129, 1)"></circle><circle r="5" cx="1157.75" cy="549.3" fill="rgba(129, 129, 129, 1)"></circle><circle r="5" cx="1237.6" cy="-106.19" fill="rgba(129, 129, 129, 1)"></circle><circle r="5" cx="1264.41" cy="68.87" fill="rgba(129, 129, 129, 1)"></circle><circle r="5" cx="1282.92" cy="249.23" fill="rgba(129, 129, 129, 1)"></circle><circle r="5" cx="1297.31" cy="690.59" fill="rgba(129, 129, 129, 1)"></circle><circle r="5" cx="1440.48" cy="-50.5" fill="rgba(129, 129, 129, 1)"></circle><circle r="5" cx="1390.38" cy="197.62" fill="rgba(129, 129, 129, 1)"></circle><circle r="5" cx="1417.87" cy="350.87" fill="rgba(129, 129, 129, 1)"></circle><circle r="5" cx="1432.33" cy="506.44" fill="rgba(129, 129, 129, 1)"></circle><circle r="5" cx="1413.15" cy="673.71" fill="rgba(129, 129, 129, 1)"></circle><circle r="5" cx="1607.65" cy="-72.5" fill="rgba(129, 129, 129, 1)"></circle><circle r="5" cx="1569.23" cy="110.59" fill="rgba(129, 129, 129, 1)"></circle><circle r="5" cx="1560.31" cy="189.64" fill="rgba(129, 129, 129, 1)"></circle><circle r="5" cx="1556.5" cy="659.93" fill="rgba(129, 129, 129, 1)"></circle><path d="M248.74 680.71L248.74 680.71" stroke="hsl(0, 0%, 82.6%)" stroke-width="1.5"></path><path d="M248.74 680.71L395.86 683.52" stroke="hsl(0, 0%, 82.6%)" stroke-width="1.5"></path><path d="M248.74 680.71L256.25 525.09" stroke="hsl(0, 0%, 82.6%)" stroke-width="1.5"></path><path d="M248.74 680.71L374.49 536.38" stroke="hsl(0, 0%, 82.6%)" stroke-width="1.5"></path><path d="M395.86 683.52L395.86 683.52" stroke="hsl(0, 0%, 82.6%)" stroke-width="1.5"></path><path d="M395.86 683.52L533.55 707.92" stroke="hsl(0, 0%, 82.6%)" stroke-width="1.5"></path><path d="M395.86 683.52L374.49 536.38" stroke="hsl(0, 0%, 82.6%)" stroke-width="1.5"></path><path d="M991.05 499.67L991.05 499.67" stroke="hsl(0, 0%, 82.6%)" stroke-width="1.5"></path><path d="M991.05 499.67L1004.28 401.87" stroke="hsl(0, 0%, 82.6%)" stroke-width="1.5"></path><path d="M991.05 499.67L1098.37 530.07" stroke="hsl(0, 0%, 82.6%)" stroke-width="1.5"></path><path d="M991.05 499.67L949.62 656.14" stroke="hsl(0, 0%, 82.6%)" stroke-width="1.5"></path><path d="M991.05 499.67L797.74 515.26" stroke="hsl(0, 0%, 82.6%)" stroke-width="1.5"></path><path d="M949.62 656.14L949.62 656.14" stroke="hsl(0, 0%, 82.6%)" stroke-width="1.5"></path><path d="M949.62 656.14L811.5 644.1" stroke="hsl(0, 0%, 82.6%)" stroke-width="1.5"></path><path d="M1137.85 190.35L1137.85 190.35" stroke="hsl(0, 0%, 82.6%)" stroke-width="1.5"></path><path d="M1137.85 190.35L1158.86 375.64" stroke="hsl(0, 0%, 82.6%)" stroke-width="1.5"></path><path d="M1137.85 190.35L1277.07 63.18" stroke="hsl(0, 0%, 82.6%)" stroke-width="1.5"></path><path d="M1137.85 190.35L1262.15 352.4" stroke="hsl(0, 0%, 82.6%)" stroke-width="1.5"></path><path d="M1137.85 190.35L1004.28 401.87" stroke="hsl(0, 0%, 82.6%)" stroke-width="1.5"></path><path d="M1137.85 190.35L1413.72 207.71" stroke="hsl(0, 0%, 82.6%)" stroke-width="1.5"></path><path d="M1158.86 375.64L1158.86 375.64" stroke="hsl(0, 0%, 82.6%)" stroke-width="1.5"></path><path d="M1158.86 375.64L1262.15 352.4" stroke="hsl(0, 0%, 82.6%)" stroke-width="1.5"></path><path d="M1158.86 375.64L1004.28 401.87" stroke="hsl(0, 0%, 82.6%)" stroke-width="1.5"></path><path d="M1158.86 375.64L1098.37 530.07" stroke="hsl(0, 0%, 82.6%)" stroke-width="1.5"></path><path d="M1158.86 375.64L1272.39 533.21" stroke="hsl(0, 0%, 82.6%)" stroke-width="1.5"></path><path d="M1158.86 375.64L991.05 499.67" stroke="hsl(0, 0%, 82.6%)" stroke-width="1.5"></path><path d="M1158.59 649.27L1158.59 649.27" stroke="hsl(0, 0%, 82.6%)" stroke-width="1.5"></path><path d="M1158.59 649.27L1276.57 700.05" stroke="hsl(0, 0%, 82.6%)" stroke-width="1.5"></path><path d="M1158.59 649.27L1098.37 530.07" stroke="hsl(0, 0%, 82.6%)" stroke-width="1.5"></path><path d="M1158.59 649.27L1272.39 533.21" stroke="hsl(0, 0%, 82.6%)" stroke-width="1.5"></path><path d="M1158.59 649.27L949.62 656.14" stroke="hsl(0, 0%, 82.6%)" stroke-width="1.5"></path><path d="M1158.59 649.27L991.05 499.67" stroke="hsl(0, 0%, 82.6%)" stroke-width="1.5"></path><path d="M1158.59 649.27L1158.86 375.64" stroke="hsl(0, 0%, 82.6%)" stroke-width="1.5"></path><path d="M1277.07 63.18L1277.07 63.18" stroke="hsl(0, 0%, 82.6%)" stroke-width="1.5"></path><path d="M1277.07 63.18L1259.21 -75.4" stroke="hsl(0, 0%, 82.6%)" stroke-width="1.5"></path><path d="M1277.07 63.18L1445.1 107.32" stroke="hsl(0, 0%, 82.6%)" stroke-width="1.5"></path><path d="M1272.39 533.21L1272.39 533.21" stroke="hsl(0, 0%, 82.6%)" stroke-width="1.5"></path><path d="M1272.39 533.21L1276.57 700.05" stroke="hsl(0, 0%, 82.6%)" stroke-width="1.5"></path><path d="M1272.39 533.21L1098.37 530.07" stroke="hsl(0, 0%, 82.6%)" stroke-width="1.5"></path><path d="M1413.72 207.71L1413.72 207.71" stroke="hsl(0, 0%, 82.6%)" stroke-width="1.5"></path><path d="M1413.72 207.71L1445.1 107.32" stroke="hsl(0, 0%, 82.6%)" stroke-width="1.5"></path><path d="M1413.72 207.71L1390.3 369.56" stroke="hsl(0, 0%, 82.6%)" stroke-width="1.5"></path><path d="M1413.72 207.71L1277.07 63.18" stroke="hsl(0, 0%, 82.6%)" stroke-width="1.5"></path><path d="M1413.72 207.71L1262.15 352.4" stroke="hsl(0, 0%, 82.6%)" stroke-width="1.5"></path><path d="M1413.72 207.71L1608.93 349.1" stroke="hsl(0, 0%, 82.6%)" stroke-width="1.5"></path><path d="M1390.3 369.56L1390.3 369.56" stroke="hsl(0, 0%, 82.6%)" stroke-width="1.5"></path><path d="M1390.3 369.56L1262.15 352.4" stroke="hsl(0, 0%, 82.6%)" stroke-width="1.5"></path><path d="M1390.3 369.56L1445 499.23" stroke="hsl(0, 0%, 82.6%)" stroke-width="1.5"></path><path d="M1390.3 369.56L1272.39 533.21" stroke="hsl(0, 0%, 82.6%)" stroke-width="1.5"></path><path d="M-77.57 547.23L-77.57 547.23" stroke="hsl(0, 0%, 82.6%)" stroke-width="1.5"></path><path d="M-77.57 547.23L-109.04 657.14" stroke="hsl(0, 0%, 82.6%)" stroke-width="1.5"></path><path d="M-77.57 547.23L95.5 513.54" stroke="hsl(0, 0%, 82.6%)" stroke-width="1.5"></path><path d="M-77.57 547.23L45.71 682.38" stroke="hsl(0, 0%, 82.6%)" stroke-width="1.5"></path><path d="M-77.57 547.23L256.25 525.09" stroke="hsl(0, 0%, 82.6%)" stroke-width="1.5"></path><path d="M-77.57 547.23L248.74 680.71" stroke="hsl(0, 0%, 82.6%)" stroke-width="1.5"></path><path d="M-77.57 547.23L374.49 536.38" stroke="hsl(0, 0%, 82.6%)" stroke-width="1.5"></path><path d="M-109.04 657.14L-109.04 657.14" stroke="hsl(0, 0%, 82.6%)" stroke-width="1.5"></path><path d="M-109.04 657.14L45.71 682.38" stroke="hsl(0, 0%, 82.6%)" stroke-width="1.5"></path><path d="M-109.04 657.14L95.5 513.54" stroke="hsl(0, 0%, 82.6%)" stroke-width="1.5"></path><path d="M-109.04 657.14L248.74 680.71" stroke="hsl(0, 0%, 82.6%)" stroke-width="1.5"></path><path d="M-109.04 657.14L256.25 525.09" stroke="hsl(0, 0%, 82.6%)" stroke-width="1.5"></path><path d="M95.5 513.54L95.5 513.54" stroke="hsl(0, 0%, 82.6%)" stroke-width="1.5"></path><path d="M95.5 513.54L256.25 525.09" stroke="hsl(0, 0%, 82.6%)" stroke-width="1.5"></path><path d="M95.5 513.54L45.71 682.38" stroke="hsl(0, 0%, 82.6%)" stroke-width="1.5"></path><path d="M95.5 513.54L248.74 680.71" stroke="hsl(0, 0%, 82.6%)" stroke-width="1.5"></path><path d="M45.71 682.38L45.71 682.38" stroke="hsl(0, 0%, 82.6%)" stroke-width="1.5"></path><path d="M256.25 525.09L256.25 525.09" stroke="hsl(0, 0%, 82.6%)" stroke-width="1.5"></path><path d="M256.25 525.09L374.49 536.38" stroke="hsl(0, 0%, 82.6%)" stroke-width="1.5"></path><path d="M374.49 536.38L374.49 536.38" stroke="hsl(0, 0%, 82.6%)" stroke-width="1.5"></path><path d="M374.49 536.38L562.15 499.63" stroke="hsl(0, 0%, 82.6%)" stroke-width="1.5"></path><path d="M562.15 499.63L562.15 499.63" stroke="hsl(0, 0%, 82.6%)" stroke-width="1.5"></path><path d="M562.15 499.63L680.67 519.74" stroke="hsl(0, 0%, 82.6%)" stroke-width="1.5"></path><path d="M562.15 499.63L644.22 666.79" stroke="hsl(0, 0%, 82.6%)" stroke-width="1.5"></path><path d="M562.15 499.63L533.55 707.92" stroke="hsl(0, 0%, 82.6%)" stroke-width="1.5"></path><path d="M533.55 707.92L533.55 707.92" stroke="hsl(0, 0%, 82.6%)" stroke-width="1.5"></path><path d="M533.55 707.92L644.22 666.79" stroke="hsl(0, 0%, 82.6%)" stroke-width="1.5"></path><path d="M680.67 519.74L680.67 519.74" stroke="hsl(0, 0%, 82.6%)" stroke-width="1.5"></path><path d="M680.67 519.74L797.74 515.26" stroke="hsl(0, 0%, 82.6%)" stroke-width="1.5"></path><path d="M644.22 666.79L644.22 666.79" stroke="hsl(0, 0%, 82.6%)" stroke-width="1.5"></path><path d="M644.22 666.79L680.67 519.74" stroke="hsl(0, 0%, 82.6%)" stroke-width="1.5"></path><path d="M644.22 666.79L811.5 644.1" stroke="hsl(0, 0%, 82.6%)" stroke-width="1.5"></path><path d="M816.19 353.65L816.19 353.65" stroke="hsl(0, 0%, 82.6%)" stroke-width="1.5"></path><path d="M816.19 353.65L797.74 515.26" stroke="hsl(0, 0%, 82.6%)" stroke-width="1.5"></path><path d="M816.19 353.65L1004.28 401.87" stroke="hsl(0, 0%, 82.6%)" stroke-width="1.5"></path><path d="M797.74 515.26L797.74 515.26" stroke="hsl(0, 0%, 82.6%)" stroke-width="1.5"></path><path d="M797.74 515.26L811.5 644.1" stroke="hsl(0, 0%, 82.6%)" stroke-width="1.5"></path><path d="M811.5 644.1L811.5 644.1" stroke="hsl(0, 0%, 82.6%)" stroke-width="1.5"></path><path d="M811.5 644.1L680.67 519.74" stroke="hsl(0, 0%, 82.6%)" stroke-width="1.5"></path><path d="M811.5 644.1L991.05 499.67" stroke="hsl(0, 0%, 82.6%)" stroke-width="1.5"></path><path d="M1004.28 401.87L1004.28 401.87" stroke="hsl(0, 0%, 82.6%)" stroke-width="1.5"></path><path d="M1004.28 401.87L1098.37 530.07" stroke="hsl(0, 0%, 82.6%)" stroke-width="1.5"></path><path d="M1098.37 530.07L1098.37 530.07" stroke="hsl(0, 0%, 82.6%)" stroke-width="1.5"></path><path d="M1259.21 -75.4L1259.21 -75.4" stroke="hsl(0, 0%, 82.6%)" stroke-width="1.5"></path><path d="M1259.21 -75.4L1449.08 -65.81" stroke="hsl(0, 0%, 82.6%)" stroke-width="1.5"></path><path d="M1259.21 -75.4L1445.1 107.32" stroke="hsl(0, 0%, 82.6%)" stroke-width="1.5"></path><path d="M1259.21 -75.4L1137.85 190.35" stroke="hsl(0, 0%, 82.6%)" stroke-width="1.5"></path><path d="M1259.21 -75.4L1579.26 -41.16" stroke="hsl(0, 0%, 82.6%)" stroke-width="1.5"></path><path d="M1259.21 -75.4L1413.72 207.71" stroke="hsl(0, 0%, 82.6%)" stroke-width="1.5"></path><path d="M1262.15 352.4L1262.15 352.4" stroke="hsl(0, 0%, 82.6%)" stroke-width="1.5"></path><path d="M1262.15 352.4L1272.39 533.21" stroke="hsl(0, 0%, 82.6%)" stroke-width="1.5"></path><path d="M1262.15 352.4L1445 499.23" stroke="hsl(0, 0%, 82.6%)" stroke-width="1.5"></path><path d="M1276.57 700.05L1276.57 700.05" stroke="hsl(0, 0%, 82.6%)" stroke-width="1.5"></path><path d="M1449.08 -65.81L1449.08 -65.81" stroke="hsl(0, 0%, 82.6%)" stroke-width="1.5"></path><path d="M1449.08 -65.81L1579.26 -41.16" stroke="hsl(0, 0%, 82.6%)" stroke-width="1.5"></path><path d="M1449.08 -65.81L1445.1 107.32" stroke="hsl(0, 0%, 82.6%)" stroke-width="1.5"></path><path d="M1449.08 -65.81L1603.18 48.86" stroke="hsl(0, 0%, 82.6%)" stroke-width="1.5"></path><path d="M1445.1 107.32L1445.1 107.32" stroke="hsl(0, 0%, 82.6%)" stroke-width="1.5"></path><path d="M1445.1 107.32L1603.18 48.86" stroke="hsl(0, 0%, 82.6%)" stroke-width="1.5"></path><path d="M1445.1 107.32L1579.26 -41.16" stroke="hsl(0, 0%, 82.6%)" stroke-width="1.5"></path><path d="M1445 499.23L1445 499.23" stroke="hsl(0, 0%, 82.6%)" stroke-width="1.5"></path><path d="M1445 499.23L1542.19 528.82" stroke="hsl(0, 0%, 82.6%)" stroke-width="1.5"></path><path d="M1445 499.23L1272.39 533.21" stroke="hsl(0, 0%, 82.6%)" stroke-width="1.5"></path><path d="M1445 499.23L1577.68 640.22" stroke="hsl(0, 0%, 82.6%)" stroke-width="1.5"></path><path d="M1445 499.23L1608.93 349.1" stroke="hsl(0, 0%, 82.6%)" stroke-width="1.5"></path><path d="M1579.26 -41.16L1579.26 -41.16" stroke="hsl(0, 0%, 82.6%)" stroke-width="1.5"></path><path d="M1579.26 -41.16L1603.18 48.86" stroke="hsl(0, 0%, 82.6%)" stroke-width="1.5"></path><path d="M1579.26 -41.16L1413.72 207.71" stroke="hsl(0, 0%, 82.6%)" stroke-width="1.5"></path><path d="M1579.26 -41.16L1277.07 63.18" stroke="hsl(0, 0%, 82.6%)" stroke-width="1.5"></path><path d="M1603.18 48.86L1603.18 48.86" stroke="hsl(0, 0%, 82.6%)" stroke-width="1.5"></path><path d="M1603.18 48.86L1413.72 207.71" stroke="hsl(0, 0%, 82.6%)" stroke-width="1.5"></path><path d="M1608.93 349.1L1608.93 349.1" stroke="hsl(0, 0%, 82.6%)" stroke-width="1.5"></path><path d="M1608.93 349.1L1542.19 528.82" stroke="hsl(0, 0%, 82.6%)" stroke-width="1.5"></path><path d="M1608.93 349.1L1390.3 369.56" stroke="hsl(0, 0%, 82.6%)" stroke-width="1.5"></path><path d="M1542.19 528.82L1542.19 528.82" stroke="hsl(0, 0%, 82.6%)" stroke-width="1.5"></path><path d="M1542.19 528.82L1577.68 640.22" stroke="hsl(0, 0%, 82.6%)" stroke-width="1.5"></path><path d="M1577.68 640.22L1577.68 640.22" stroke="hsl(0, 0%, 82.6%)" stroke-width="1.5"></path><circle r="25" cx="248.74" cy="680.71" fill="url(&quot;#SvgjsRadialGradient1015&quot;)"></circle><circle r="25" cx="395.86" cy="683.52" fill="url(&quot;#SvgjsRadialGradient1015&quot;)"></circle><circle r="25" cx="991.05" cy="499.67" fill="url(&quot;#SvgjsRadialGradient1015&quot;)"></circle><circle r="25" cx="949.62" cy="656.14" fill="url(&quot;#SvgjsRadialGradient1015&quot;)"></circle><circle r="25" cx="1137.85" cy="190.35" fill="url(&quot;#SvgjsRadialGradient1015&quot;)"></circle><circle r="25" cx="1158.86" cy="375.64" fill="url(&quot;#SvgjsRadialGradient1015&quot;)"></circle><circle r="25" cx="1158.59" cy="649.27" fill="url(&quot;#SvgjsRadialGradient1015&quot;)"></circle><circle r="25" cx="1277.07" cy="63.18" fill="url(&quot;#SvgjsRadialGradient1015&quot;)"></circle><circle r="25" cx="1272.39" cy="533.21" fill="url(&quot;#SvgjsRadialGradient1015&quot;)"></circle><circle r="25" cx="1413.72" cy="207.71" fill="url(&quot;#SvgjsRadialGradient1015&quot;)"></circle><circle r="25" cx="1390.3" cy="369.56" fill="url(&quot;#SvgjsRadialGradient1015&quot;)"></circle><circle r="5" cx="-77.57" cy="547.23" fill="#d1d1d1"></circle><circle r="5" cx="-109.04" cy="657.14" fill="#d1d1d1"></circle><circle r="5" cx="95.5" cy="513.54" fill="#d1d1d1"></circle><circle r="5" cx="45.71" cy="682.38" fill="#d1d1d1"></circle><circle r="5" cx="256.25" cy="525.09" fill="#d1d1d1"></circle><circle r="5" cx="374.49" cy="536.38" fill="#d1d1d1"></circle><circle r="5" cx="562.15" cy="499.63" fill="#d1d1d1"></circle><circle r="5" cx="533.55" cy="707.92" fill="#d1d1d1"></circle><circle r="5" cx="680.67" cy="519.74" fill="#d1d1d1"></circle><circle r="5" cx="644.22" cy="666.79" fill="#d1d1d1"></circle><circle r="5" cx="816.19" cy="353.65" fill="#d1d1d1"></circle><circle r="5" cx="797.74" cy="515.26" fill="#d1d1d1"></circle><circle r="5" cx="811.5" cy="644.1" fill="#d1d1d1"></circle><circle r="5" cx="1004.28" cy="401.87" fill="#d1d1d1"></circle><circle r="5" cx="1098.37" cy="530.07" fill="#d1d1d1"></circle><circle r="5" cx="1259.21" cy="-75.4" fill="#d1d1d1"></circle><circle r="5" cx="1262.15" cy="352.4" fill="#d1d1d1"></circle><circle r="5" cx="1276.57" cy="700.05" fill="#d1d1d1"></circle><circle r="5" cx="1449.08" cy="-65.81" fill="#d1d1d1"></circle><circle r="5" cx="1445.1" cy="107.32" fill="#d1d1d1"></circle><circle r="5" cx="1445" cy="499.23" fill="#d1d1d1"></circle><circle r="5" cx="1579.26" cy="-41.16" fill="#d1d1d1"></circle><circle r="5" cx="1603.18" cy="48.86" fill="#d1d1d1"></circle><circle r="5" cx="1608.93" cy="349.1" fill="#d1d1d1"></circle><circle r="5" cx="1542.19" cy="528.82" fill="#d1d1d1"></circle><circle r="5" cx="1577.68" cy="640.22" fill="#d1d1d1"></circle></g><defs><mask id="SvgjsMask1014"><rect width="1440" height="560" fill="#ffffff"></rect></mask><radialGradient id="SvgjsRadialGradient1015"><stop stop-color="#ffffff" offset="0.1"></stop><stop stop-color="rgba(162, 162, 162, 1)" offset="0.2"></stop><stop stop-color="rgba(162, 162, 162, 0)" offset="1"></stop></radialGradient></defs></svg>