<svg xmlns="http://www.w3.org/2000/svg" version="1.1" xmlns:xlink="http://www.w3.org/1999/xlink" xmlns:svgjs="http://svgjs.dev/svgjs" width="1440" height="560" preserveAspectRatio="none" viewBox="0 0 1440 560"><g mask="url(&quot;#SvgjsMask1237&quot;)" fill="none"><rect width="1440" height="560" x="0" y="0" fill="rgba(236, 236, 236, 1)"></rect><path d="M687.45 637.62C821.37 630.19 899.2 399.88 1162.44 388.23 1425.69 376.58 1507.96 185.47 1637.44 181.03" stroke="rgba(255, 255, 255, 0.58)" stroke-width="2"></path><path d="M578.31 596.39C691.26 574.85 660.77 289.03 920.06 288.58 1179.35 288.13 1428.56 438.88 1603.56 439.78" stroke="rgba(255, 255, 255, 0.58)" stroke-width="2"></path><path d="M710.96 561.82C883.31 523.76 958.31 71.58 1217.74 70.27 1477.17 68.96 1581.34 330.92 1724.52 339.07" stroke="rgba(255, 255, 255, 0.58)" stroke-width="2"></path><path d="M644.63 584.11C762.46 573.98 808.18 354.13 1045.31 332.6 1282.44 311.07 1326.69 80.82 1445.99 69.4" stroke="rgba(255, 255, 255, 0.58)" stroke-width="2"></path><path d="M627.22 643.2C709.82 635.49 668.84 476.39 905.45 462.39 1142.06 448.39 1307.57 200.51 1461.91 193.59" stroke="rgba(255, 255, 255, 0.58)" stroke-width="2"></path></g><defs><mask id="SvgjsMask1237"><rect width="1440" height="560" fill="#ffffff"></rect></mask></defs></svg>