<svg xmlns="http://www.w3.org/2000/svg" version="1.1" xmlns:xlink="http://www.w3.org/1999/xlink" xmlns:svgjs="http://svgjs.dev/svgjs" width="2000" height="2000" viewBox="0 0 2000 2000"><g transform="matrix(1,0,0,1,-0.28443113772425477,-0.28443113772459583)"><svg viewBox="0 0 334 334" data-background-color="#ffffff" preserveAspectRatio="xMidYMid meet" height="2000" width="2000" xmlns="http://www.w3.org/2000/svg" xmlns:xlink="http://www.w3.org/1999/xlink"><g id="tight-bounds" transform="matrix(1,0,0,1,0.04749999999998522,0.04750000000001364)"><svg viewBox="0 0 333.90454557049503 333.90454557049503" height="333.90454557049503" width="333.90454557049503"><g><svg></svg></g><g><svg viewBox="0 0 333.90454557049503 333.90454557049503" height="333.90454557049503" width="333.90454557049503"><g><path d="M0 166.952c0-92.205 74.747-166.952 166.952-166.952 92.205 0 166.952 74.747 166.953 166.952 0 92.205-74.747 166.952-166.953 166.953-92.205 0-166.952-74.747-166.952-166.953zM166.952 316.63c82.665 0 149.677-67.013 149.678-149.678 0-82.665-67.013-149.677-149.678-149.677-82.665 0-149.677 67.013-149.677 149.677 0 82.665 67.013 149.677 149.677 149.678z" data-fill-palette-color="tertiary" fill="#fbb04b" stroke="transparent"></path><ellipse rx="160.27418187383762" ry="160.27418187383762" cx="166.95227278524752" cy="166.95227278524752" fill="#fbb04b" stroke="transparent" stroke-width="0" fill-opacity="1" data-fill-palette-color="tertiary"></ellipse></g><g transform="matrix(1,0,0,1,101.62138465067694,71.17305217166896)"><svg viewBox="0 0 130.66177626914114 191.55844122715712" height="191.55844122715712" width="130.66177626914114"><g><svg viewBox="0 0 130.66177626914114 191.55844122715712" height="191.55844122715712" width="130.66177626914114"><g><svg viewBox="0 0 130.66177626914114 191.55844122715712" height="191.55844122715712" width="130.66177626914114"><g><svg viewBox="0 0 130.66177626914114 191.55844122715712" height="191.55844122715712" width="130.66177626914114"><g id="textblocktransform"><svg viewBox="0 0 130.66177626914114 191.55844122715712" height="191.55844122715712" width="130.66177626914114" id="textblock"><g><svg viewBox="0 0 130.66177626914114 191.55844122715712" height="191.55844122715712" width="130.66177626914114"><g transform="matrix(1,0,0,1,0,0)"><svg width="130.66177626914114" viewBox="1.75 -31.95 22.1 32.4" height="191.55844122715712" data-palette-color="#ffffff"><path d="M18.3 0L1.75 0 1.75-0.9 4.1-0.9Q4.8-0.9 4.8-1.6L4.8-1.6 4.8-30Q4.8-30.6 4.1-30.6L4.1-30.6 1.75-30.6 1.75-31.5 17.6-31.5Q21.55-31.5 23.15-31.95L23.15-31.95Q22.7-29.9 22.7-26.25L22.7-26.25 22.7-23.9 21.55-23.9 20.8-29Q20.7-30.1 19.4-30.1L19.4-30.1 8.9-30.1 8.9-16.45 18.95-16.45Q19.55-16.45 19.65-17.15L19.65-17.15 19.9-20.25 20.8-20.25 20.8-11.25 19.9-11.25 19.65-14.35Q19.55-15.05 18.95-15.05L18.95-15.05 8.9-15.05 8.9-1.4 20.1-1.4Q21.4-1.4 21.5-2.5L21.5-2.5 22.25-8.35 23.4-8.35 23.4-6Q23.4-1.6 23.85 0.45L23.85 0.45Q22.25 0 18.3 0L18.3 0Z" opacity="1" transform="matrix(1,0,0,1,0,0)" fill="#ffffff" class="wordmark-text-0" data-fill-palette-color="quaternary" id="text-0"></path></svg></g></svg></g></svg></g></svg></g><g></g></svg></g></svg></g></svg></g></svg></g><defs></defs></svg><rect width="333.90454557049503" height="333.90454557049503" fill="none" stroke="none" visibility="hidden"></rect></g></svg></g></svg>